<?xml version="1.0" encoding="UTF-8"?>
<!DOCTYPE svg PUBLIC "-//W3C//DTD SVG 1.1//EN" "http://www.w3.org/Graphics/SVG/1.1/DTD/svg11.dtd">
<!-- Creator: CorelDRAW -->
<svg xmlns="http://www.w3.org/2000/svg" xml:space="preserve" width="150mm" height="150mm" style="shape-rendering:geometricPrecision; text-rendering:geometricPrecision; image-rendering:optimizeQuality; fill-rule:evenodd; clip-rule:evenodd"
viewBox="0 0 150 150"
 version="1.1"
 xmlns:xlink="http://www.w3.org/1999/xlink">
 <defs>
  <style type="text/css">
   <![CDATA[
    .fil0 {fill:white}
   ]]>
  </style>
 </defs>
 <g id="Capa_x0020_1">
  <metadata id="CorelCorpID_0Corel-Layer"/>
  <g id="_221110888">
   <g>
    <path id="_222405272" class="fil0" d="M75.3367 5.0604c-37.7287,0 -69.6024,30.5402 -69.6024,66.6897 0,20.3807 10.1774,44.7227 25.9274,62.0144l0.4451 0.489 0.6492 -0.128c0.1659,-0.0299 3.7732,-0.7867 5.2807,-3.5306 3.6949,3.0118 6.9755,3.3071 10.4264,2.0768 1.5344,2.9366 2.1308,6.1336 -1.9816,7.2929 -3.8716,1.0963 -9.0451,-0.3264 -12.865,-0.9025 -6.3654,-0.9613 -19.8523,-1.2399 -26.2814,-1.0019 -3.0275,0.1137 -3.0383,4.7979 0,4.6842 7.7617,-0.2858 22.3469,0.4791 30.0258,1.5637 3.8422,0.5429 8.7476,1.2951 12.4304,-0.4842 6.3622,-3.0738 5.2908,-8.3163 2.7313,-13.1705 1.9211,-1.1656 3.9703,-2.6386 6.191,-4.2216 -6.158,-2.6901 -14.2209,-14.7246 -19.7281,-25.2181 -3.8967,-7.4293 -11.5196,-23.1738 -10.6601,-31.1318 -4.7598,3.2508 -8.4631,6.082 -10.4724,9.7966 -0.5561,-3.504 -0.8555,-6.9426 -0.8555,-10.2718 0,-28.6461 30.1653,-47.8884 58.3373,-47.8884 34.8972,0 58.3346,24.7622 58.3346,47.8884 0,3.3094 -0.269,6.6995 -0.7874,10.1295 -2.0231,-3.6454 -5.6957,-6.4478 -10.3949,-9.6543 0.8606,7.958 -6.7607,23.7023 -10.6593,31.1318 -5.505,10.4935 -13.57,22.5306 -19.7274,25.2181 8.4607,6.0378 14.1301,10.2807 21.6554,3.3071 1.5398,2.3793 4.3387,3.6272 4.4815,3.6872l0.7802 0.3332 0.5652 -0.631c15.4068,-17.227 25.357,-41.3179 25.357,-61.381 -0.0007,-36.1498 -31.8748,-66.6869 -69.603,-66.6869z"/>
    <path id="_222404912" class="fil0" d="M32.7668 67.687c-0.2969,0 -0.5588,0.0692 -0.8018,0.1756 -0.0861,0.0376 -0.1803,0.0651 -0.261,0.1167 -3.4219,2.228 1.1816,16.5362 9.3726,32.1479 7.4746,14.2463 15.9641,24.5259 19.9944,24.5259 0.075,0 0.1425,-0.0215 0.2139,-0.0274 0.2963,-0.0322 0.5768,-0.1053 0.8174,-0.2619 0.2634,-0.1733 0.4707,-0.4412 0.6498,-0.7542 0.009,-0.0182 0.0186,-0.0433 0.0275,-0.0609 2.0655,-3.8152 -1.7918,-17.1519 -9.3108,-31.4844 -7.4652,-14.2299 -16.558,-24.3797 -20.702,-24.3773z"/>
    <path id="_222405824" class="fil0" d="M109.744 100.127c8.1904,-15.6119 12.7934,-29.9224 9.372,-32.1479 -0.0807,-0.0513 -0.1755,-0.079 -0.2621,-0.1167 -0.2418,-0.1062 -0.5036,-0.1757 -0.8007,-0.1757 -4.1415,0 -13.237,10.1475 -20.7024,24.377 -7.5181,14.335 -11.3771,27.6728 -9.3117,31.4857 0.0093,0.0188 0.0201,0.0417 0.0301,0.0596 0.1766,0.3156 0.3858,0.5859 0.6479,0.7542 0.2463,0.1603 0.5313,0.2381 0.8355,0.2656 0.064,0.0072 0.1263,0.0277 0.1971,0.0277 4.0271,0.0003 12.5181,-10.2832 19.9943,-24.5295z"/>
    <path id="_222405800" class="fil0" d="M78.9792 32.9936c-2.4332,-0.412 -4.4221,1.3693 -4.4221,3.8241l0 25.358c-1.4384,-0.5248 -2.9875,-0.8268 -4.611,-0.8268 -7.4086,0 -13.4136,5.9725 -13.4136,13.342 0,7.367 6.005,13.3391 13.4136,13.3391 5.4291,0 10.098,-3.2065 12.2067,-7.818 1.0241,-2.2318 1.1708,-6.2621 1.1807,-8.7151 0.0275,-7.846 0.0275,-23.3316 0.0275,-23.3316 17.3303,0 16.2918,10.3291 14.2627,16.261 -0.7938,2.3237 -0.321,2.7122 1.3487,0.9046 21.1481,-22.9106 -8.2984,-30.3578 -19.9932,-32.3373z"/>
   </g>
   <g>
   </g>
   <g>
   </g>
   <g>
   </g>
   <g>
   </g>
   <g>
   </g>
   <g>
   </g>
   <g>
   </g>
   <g>
   </g>
   <g>
   </g>
   <g>
   </g>
   <g>
   </g>
   <g>
   </g>
   <g>
   </g>
   <g>
   </g>
   <g>
   </g>
  </g>
 </g>
</svg>
