<?xml version="1.0" encoding="UTF-8"?>
<!DOCTYPE svg PUBLIC "-//W3C//DTD SVG 1.1//EN" "http://www.w3.org/Graphics/SVG/1.1/DTD/svg11.dtd">
<!-- Creator: CorelDRAW -->
<svg xmlns="http://www.w3.org/2000/svg" xml:space="preserve" width="150mm" height="150mm" style="shape-rendering:geometricPrecision; text-rendering:geometricPrecision; image-rendering:optimizeQuality; fill-rule:evenodd; clip-rule:evenodd"
viewBox="0 0 150 150">
 <defs>
  <style type="text/css">
   <![CDATA[
    .fil0 {fill:white}
   ]]>
  </style>
 </defs>
 <g id="Capa_x0020_1">
  <metadata id="CorelCorpID_0Corel-Layer"/>
  <g id="_222272392">
   <path id="_222272464" class="fil0" d="M119.578 27.3299c-3.1505,0 -5.7099,2.4008 -5.7099,5.3602 0,2.9624 2.5592,5.3599 5.7099,5.3599 3.0675,0 5.5645,-2.2703 5.6988,-5.1135 2.9458,-8.6588 2.3693,-15.3298 1.7559,-18.5508 -0.431,-2.2495 -2.4238,-4.008 -4.5303,-4.008l-13.4277 -0.0063c-1.0715,0 -2.0737,0.4612 -2.8275,1.2925 -0.7975,0.8855 -1.2338,2.0857 -1.2286,3.3871 0.0221,3.6286 -0.7057,8.4715 -1.33,11.9541 -0.5228,-0.1483 -1.0831,-0.2317 -1.6648,-0.2317 -3.1511,0 -5.7099,2.4007 -5.7099,5.3634 0,2.9594 2.5609,5.36 5.7099,5.36 2.9171,0 5.3162,-2.0501 5.6659,-4.6974l0.043 0.0121c0.0941,-0.4159 2.2078,-9.8829 2.3537,-16.8417l12.059 0.0057c0.3854,2.3028 0.6411,6.3559 -0.6485,11.6658 -0.6048,-0.1956 -1.2455,-0.3114 -1.9189,-0.3114z"/>
   <path id="_222272200" class="fil0" d="M23.8788 83.5155c1.1661,2.6683 4.4138,3.6039 7.2523,2.0978 2.7656,-1.4651 4.1206,-4.707 3.1242,-7.3338 -0.7504,-9.214 -3.8917,-14.9458 -5.7104,-17.5574 -1.2741,-1.8158 -3.7595,-2.4518 -5.6595,-1.4413l-12.0997 6.4207c-0.9653,0.5114 -1.6884,1.4059 -2.0387,2.5199 -0.3717,1.1771 -0.2892,2.4723 0.2261,3.6397 1.445,3.26 2.6942,7.9725 3.4969,11.4099 -0.5315,0.1164 -1.068,0.3087 -1.5885,0.5887 -2.8375,1.5064 -4.1967,4.894 -3.0325,7.5616 1.1663,2.6685 4.4115,3.6074 7.2527,2.098 2.6243,-1.3931 3.9815,-4.3945 3.2557,-6.9433l0.0445 -0.0097c-0.0768,-0.4216 -1.8974,-9.9599 -4.5003,-16.3039l10.8655 -5.7645c1.2522,1.8931 3.078,5.4202 4.0018,10.8223 -0.6209,0.1072 -1.244,0.3118 -1.8512,0.6329 -2.8439,1.5064 -4.2035,4.8948 -3.0389,7.5624z"/>
   <path id="_222272536" class="fil0" d="M79.1037 20.0419c0,-7.3843 -5.4272,-13.3725 -12.1198,-13.3725 -6.6927,0 -12.1201,5.9882 -12.1201,13.3725 0,7.3842 5.4274,13.3727 12.1201,13.3727 6.6926,0 12.1198,-5.9885 12.1198,-13.3727zm-6.6005 5.8837c2.8618,0.9721 -4.7285,4.1745 -8.3881,2.9312 -3.6596,-1.2432 -7.7286,-8.4069 -4.8667,-7.4345l13.2548 4.5033z"/>
   <path id="_222272248" class="fil0" d="M11.457 144.022l127.086 0c4.5707,0 8.2735,-3.9933 8.2735,-8.9267 0,-4.9323 -3.7028,-8.9285 -8.2735,-8.9285l-38.8128 0c0.2269,-0.0925 0.4582,-0.1786 0.6788,-0.3211 1.8988,-1.269 2.5106,-3.9965 1.3599,-6.0942l-22.6647 -41.3941 0 -20.4436c10.3175,10.2751 15.3045,26.7305 15.3936,27.031 0.5521,1.8775 2.1303,3.0717 3.8296,3.0717 0.4067,0 0.8275,-0.0674 1.2337,-0.214 2.1196,-0.7518 3.2775,-3.2561 2.5932,-5.5853 -0.3393,-1.1503 -7.3059,-24.3596 -23.0634,-35.4606 -0.0641,-6.0643 -4.5307,-10.9614 -10.0436,-10.9614l-4.1311 0.0002c-2.6468,0 -5.0386,1.1531 -6.8339,2.9981 -12.3855,-9.755 -18.344,-29.4105 -18.4431,-29.7433 -0.6868,-2.3264 -2.9476,-3.6099 -5.0631,-2.8556 -2.1184,0.7544 -3.2763,3.2565 -2.592,5.5864 0.3352,1.1466 7.2498,24.1806 22.8748,35.3356l0 35.5205 -7.7937 15.0877c-0.6371,1.2332 -0.703,2.7245 -0.1709,4.0231l9.0485 22.1248c0.4575,1.1205 1.2954,1.896 2.2608,2.2941l-46.7461 0c-4.5691,0 -8.2729,3.9994 -8.2729,8.9292 0,4.9298 3.7038,8.926 8.2729,8.926zm43.6106 -43.8664l7.6751 -14.8565 10.7599 0 21.3773 39.0436c0.4875,0.8889 1.2197,1.4885 2.0357,1.8273l-35.866 -0.0003c0.0688,-0.0298 0.1431,-0.0413 0.2117,-0.0746 2.0237,-1.0072 2.9287,-3.6365 2.0133,-5.8713l-8.207 -20.0682z"/>
  </g>
 </g>
</svg>
